<svg width="983" height="294" viewBox="0 0 983 294" fill="none" xmlns="http://www.w3.org/2000/svg">
<path d="M381.795 237.461V212.79H390.42C392.139 212.79 393.556 213.087 394.673 213.681C395.789 214.268 396.62 215.059 397.166 216.055C397.713 217.042 397.986 218.139 397.986 219.343C397.986 220.403 397.797 221.279 397.419 221.969C397.05 222.66 396.56 223.206 395.95 223.608C395.347 224.009 394.693 224.306 393.986 224.499V224.74C394.741 224.788 395.5 225.053 396.263 225.535C397.026 226.017 397.664 226.708 398.178 227.607C398.692 228.507 398.949 229.607 398.949 230.908C398.949 232.145 398.668 233.257 398.106 234.245C397.544 235.233 396.656 236.016 395.444 236.594C394.231 237.172 392.653 237.461 390.709 237.461H381.795ZM384.783 234.811H390.709C392.661 234.811 394.046 234.434 394.866 233.679C395.693 232.916 396.106 231.992 396.106 230.908C396.106 230.073 395.894 229.302 395.468 228.595C395.042 227.88 394.436 227.31 393.649 226.884C392.862 226.451 391.93 226.234 390.854 226.234H384.783V234.811ZM384.783 223.632H390.324C391.223 223.632 392.035 223.455 392.757 223.102C393.488 222.748 394.066 222.25 394.492 221.608C394.926 220.966 395.143 220.211 395.143 219.343C395.143 218.259 394.765 217.34 394.01 216.585C393.255 215.822 392.059 215.44 390.42 215.44H384.783V223.632Z" fill="#F9F9F9"/>
<path d="M426.332 212.79H429.754L436.596 224.306H436.885L443.728 212.79H447.149L438.234 227.294V237.461H435.247V227.294L426.332 212.79Z" fill="#F9F9F9"/>
<path d="M526.607 220.5C526.342 219.689 525.993 218.962 525.559 218.319C525.133 217.669 524.624 217.115 524.029 216.657C523.443 216.199 522.776 215.85 522.03 215.609C521.283 215.368 520.463 215.247 519.572 215.247C518.11 215.247 516.781 215.625 515.585 216.38C514.388 217.135 513.436 218.247 512.73 219.717C512.023 221.186 511.669 222.989 511.669 225.126C511.669 227.262 512.027 229.065 512.742 230.534C513.456 232.004 514.424 233.116 515.645 233.871C516.866 234.626 518.239 235.004 519.765 235.004C521.178 235.004 522.423 234.703 523.499 234.1C524.583 233.49 525.427 232.631 526.029 231.522C526.639 230.406 526.944 229.093 526.944 227.583L527.86 227.776H520.439V225.126H529.836V227.776C529.836 229.808 529.402 231.575 528.535 233.076C527.675 234.578 526.487 235.743 524.969 236.57C523.459 237.389 521.724 237.799 519.765 237.799C517.58 237.799 515.661 237.285 514.006 236.257C512.36 235.229 511.075 233.767 510.152 231.872C509.236 229.976 508.778 227.728 508.778 225.126C508.778 223.174 509.039 221.419 509.561 219.861C510.091 218.295 510.838 216.962 511.802 215.862C512.766 214.762 513.906 213.918 515.223 213.332C516.54 212.746 517.99 212.453 519.572 212.453C520.873 212.453 522.086 212.649 523.21 213.043C524.342 213.428 525.35 213.979 526.234 214.693C527.125 215.4 527.868 216.247 528.462 217.235C529.057 218.215 529.466 219.303 529.691 220.5H526.607Z" fill="#F9F9F9"/>
<path d="M559.547 237.461V212.79H562.534V234.811H574.003V237.461H559.547Z" fill="#F9F9F9"/>
<path d="M603.223 237.461V212.79H618.112V215.44H606.21V223.776H617.341V226.427H606.21V234.811H618.305V237.461H603.223Z" fill="#F9F9F9"/>
<path d="M667.655 212.79V237.461H664.764L651.32 218.09H651.079V237.461H648.091V212.79H650.982L664.475 232.209H664.715V212.79H667.655Z" fill="#F9F9F9"/>
<path d="M732.362 237.461V212.79H747.155V215.44H735.35V223.776H746.047V226.427H735.35V237.461H732.362Z" fill="#F9F9F9"/>
<path d="M774.797 237.461H771.665L780.724 212.79H783.808L792.867 237.461H789.735L782.363 216.693H782.17L774.797 237.461ZM775.954 227.824H788.579V230.474H775.954V227.824Z" fill="#F9F9F9"/>
<path d="M839.998 220.5H837.01C836.833 219.64 836.524 218.885 836.082 218.235C835.649 217.584 835.119 217.038 834.492 216.597C833.874 216.147 833.187 215.81 832.432 215.585C831.677 215.36 830.89 215.247 830.071 215.247C828.577 215.247 827.224 215.625 826.011 216.38C824.807 217.135 823.847 218.247 823.132 219.717C822.426 221.186 822.072 222.989 822.072 225.126C822.072 227.262 822.426 229.065 823.132 230.534C823.847 232.004 824.807 233.116 826.011 233.871C827.224 234.626 828.577 235.004 830.071 235.004C830.89 235.004 831.677 234.891 832.432 234.666C833.187 234.442 833.874 234.108 834.492 233.667C835.119 233.217 835.649 232.667 836.082 232.016C836.524 231.358 836.833 230.603 837.01 229.751H839.998C839.773 231.012 839.363 232.141 838.769 233.137C838.174 234.132 837.436 234.98 836.552 235.678C835.669 236.369 834.677 236.895 833.577 237.256C832.484 237.618 831.316 237.799 830.071 237.799C827.967 237.799 826.096 237.285 824.457 236.257C822.819 235.229 821.53 233.767 820.591 231.872C819.651 229.976 819.181 227.728 819.181 225.126C819.181 222.524 819.651 220.275 820.591 218.38C821.53 216.484 822.819 215.023 824.457 213.995C826.096 212.967 827.967 212.453 830.071 212.453C831.316 212.453 832.484 212.633 833.577 212.995C834.677 213.356 835.669 213.886 836.552 214.585C837.436 215.276 838.174 216.119 838.769 217.115C839.363 218.102 839.773 219.231 839.998 220.5Z" fill="#F9F9F9"/>
<path d="M868.07 215.44V212.79H886.574V215.44H878.816V237.461H875.828V215.44H868.07Z" fill="#F9F9F9"/>
<path d="M935.568 225.126C935.568 227.728 935.098 229.976 934.159 231.872C933.219 233.767 931.93 235.229 930.292 236.257C928.653 237.285 926.782 237.799 924.678 237.799C922.574 237.799 920.703 237.285 919.064 236.257C917.426 235.229 916.137 233.767 915.197 231.872C914.258 229.976 913.788 227.728 913.788 225.126C913.788 222.524 914.258 220.275 915.197 218.38C916.137 216.484 917.426 215.023 919.064 213.995C920.703 212.967 922.574 212.453 924.678 212.453C926.782 212.453 928.653 212.967 930.292 213.995C931.93 215.023 933.219 216.484 934.159 218.38C935.098 220.275 935.568 222.524 935.568 225.126ZM932.677 225.126C932.677 222.989 932.32 221.186 931.605 219.717C930.898 218.247 929.938 217.135 928.726 216.38C927.521 215.625 926.172 215.247 924.678 215.247C923.184 215.247 921.831 215.625 920.618 216.38C919.414 217.135 918.454 218.247 917.739 219.717C917.033 221.186 916.679 222.989 916.679 225.126C916.679 227.262 917.033 229.065 917.739 230.534C918.454 232.004 919.414 233.116 920.618 233.871C921.831 234.626 923.184 235.004 924.678 235.004C926.172 235.004 927.521 234.626 928.726 233.871C929.938 233.116 930.898 232.004 931.605 230.534C932.32 229.065 932.677 227.262 932.677 225.126Z" fill="#F9F9F9"/>
<path d="M965.186 237.461V212.79H973.522C975.449 212.79 977.032 213.119 978.268 213.778C979.505 214.428 980.421 215.324 981.015 216.464C981.609 217.605 981.906 218.902 981.906 220.355C981.906 221.809 981.609 223.098 981.015 224.222C980.421 225.346 979.509 226.23 978.28 226.872C977.052 227.507 975.482 227.824 973.57 227.824H966.824V225.126H973.474C974.791 225.126 975.851 224.933 976.654 224.547C977.465 224.162 978.052 223.616 978.413 222.909C978.782 222.194 978.967 221.343 978.967 220.355C978.967 219.367 978.782 218.504 978.413 217.765C978.043 217.026 977.453 216.456 976.642 216.055C975.831 215.645 974.759 215.44 973.426 215.44H968.173V237.461H965.186ZM976.799 226.378L982.87 237.461H979.401L973.426 226.378H976.799Z" fill="#F9F9F9"/>
<path d="M0 64.68C0 28.9582 28.9582 0 64.68 0H229.32C265.042 0 294 28.9582 294 64.68V229.32C294 265.042 265.042 294 229.32 294H64.68C28.9582 294 0 265.042 0 229.32V64.68Z" fill="white"/>
<path fill-rule="evenodd" clip-rule="evenodd" d="M56.5188 54.0354C53.7842 51.9882 50.4531 50.8821 47.0296 50.8845H30.492C26.1419 50.8845 22.6155 54.3894 22.6155 58.7129C22.6155 63.0365 26.1419 66.5414 30.492 66.5414L47.0409 66.5414L82.6718 190.39L82.6774 190.41C84.0737 195.334 87.0564 199.668 91.1685 202.746C95.2792 205.824 100.291 207.477 105.437 207.453H199.718C204.864 207.477 209.876 205.824 213.987 202.746C218.1 199.667 221.083 195.332 222.479 190.406L222.483 190.39L248.466 100.006C249.145 97.6436 248.669 95.1019 247.181 93.1407C245.693 91.1796 243.364 90.0266 240.893 90.0266H70.1819L62.1865 62.2357C61.2446 58.9626 59.2548 56.0837 56.5188 54.0354ZM97.838 186.156L74.6863 105.683H230.451L207.327 186.122L207.317 186.156C206.857 187.786 205.87 189.221 204.509 190.24C203.148 191.259 201.488 191.806 199.784 191.796L105.417 191.796L105.371 191.796C103.667 191.806 102.007 191.259 100.646 190.24C99.2854 189.221 98.2987 187.786 97.838 186.156ZM101.38 246.595C105.73 246.595 109.257 243.09 109.257 238.766C109.257 234.443 105.73 230.938 101.38 230.938C97.0303 230.938 93.5039 234.443 93.5039 238.766C93.5039 243.09 97.0303 246.595 101.38 246.595ZM117.133 238.766C117.133 247.413 110.081 254.423 101.38 254.423C92.6803 254.423 85.6274 247.413 85.6274 238.766C85.6274 230.119 92.6803 223.109 101.38 223.109C110.081 223.109 117.133 230.119 117.133 238.766ZM203.775 246.595C208.125 246.595 211.651 243.09 211.651 238.766C211.651 234.443 208.125 230.938 203.775 230.938C199.425 230.938 195.898 234.443 195.898 238.766C195.898 243.09 199.425 246.595 203.775 246.595ZM219.528 238.766C219.528 247.413 212.475 254.423 203.775 254.423C195.075 254.423 188.022 247.413 188.022 238.766C188.022 230.119 195.075 223.109 203.775 223.109C212.475 223.109 219.528 230.119 219.528 238.766Z" fill="#457EFF"/>
<path d="M384.462 152.169V70.036H431.12V76.7734H391.825V107.694H427.459V114.431H391.825V152.169H384.462Z" fill="white"/>
<path d="M460.429 153.573C456.781 153.573 453.447 152.851 450.428 151.407C447.41 149.937 445.008 147.825 443.223 145.071C441.438 142.29 440.545 138.922 440.545 134.965C440.545 131.917 441.11 129.35 442.238 127.265C443.367 125.179 444.968 123.468 447.042 122.131C449.116 120.794 451.57 119.738 454.405 118.963C457.24 118.188 460.364 117.586 463.776 117.158C467.162 116.731 470.024 116.356 472.36 116.035C474.722 115.715 476.52 115.207 477.754 114.511C478.988 113.816 479.605 112.693 479.605 111.143V109.699C479.605 105.501 478.371 102.199 475.904 99.7932C473.462 97.3603 469.945 96.1438 465.351 96.1438C460.994 96.1438 457.437 97.1196 454.681 99.0714C451.951 101.023 450.034 103.322 448.932 105.969L442.278 103.523C443.643 100.154 445.533 97.4672 447.948 95.462C450.363 93.4301 453.066 91.9729 456.059 91.0906C459.051 90.1816 462.083 89.7271 465.154 89.7271C467.464 89.7271 469.866 90.0346 472.36 90.6495C474.88 91.2644 477.216 92.3339 479.369 93.8578C481.521 95.3551 483.267 97.4538 484.605 100.154C485.944 102.828 486.614 106.223 486.614 110.341V152.169H479.605V142.424H479.172C478.332 144.242 477.085 146.007 475.431 147.718C473.777 149.429 471.704 150.832 469.21 151.929C466.716 153.025 463.789 153.573 460.429 153.573ZM461.374 147.036C465.102 147.036 468.331 146.194 471.061 144.509C473.79 142.825 475.89 140.593 477.36 137.812C478.857 135.005 479.605 131.917 479.605 128.548V119.645C479.08 120.153 478.2 120.607 476.967 121.008C475.759 121.409 474.355 121.77 472.754 122.091C471.179 122.385 469.604 122.639 468.029 122.853C466.454 123.067 465.036 123.254 463.776 123.415C460.364 123.842 457.45 124.511 455.035 125.42C452.62 126.329 450.769 127.585 449.483 129.19C448.197 130.767 447.554 132.799 447.554 135.285C447.554 139.028 448.866 141.929 451.491 143.988C454.116 146.02 457.411 147.036 461.374 147.036Z" fill="white"/>
<path d="M507.201 128.909L507.122 119.565H508.697L537.047 90.5693H545.906L517.911 119.123L517.281 119.244L507.201 128.909ZM500.822 152.169V70.036H507.831V152.169H500.822ZM538.504 152.169L513.934 120.527L518.974 115.594L547.481 152.169H538.504Z" fill="white"/>
<path d="M576.603 153.453C570.959 153.453 566.077 152.116 561.956 149.442C557.834 146.742 554.645 143.012 552.388 138.253C550.156 133.467 549.041 127.96 549.041 121.73C549.041 115.527 550.156 110.02 552.388 105.207C554.645 100.368 557.756 96.5849 561.719 93.8578C565.709 91.104 570.316 89.7271 575.54 89.7271C578.821 89.7271 581.984 90.342 585.029 91.5719C588.074 92.775 590.804 94.6332 593.219 97.1464C595.66 99.6328 597.59 102.774 599.007 106.571C600.425 110.341 601.133 114.806 601.133 119.966V123.495H553.884V117.198H593.967C593.967 113.242 593.18 109.686 591.605 106.531C590.056 103.349 587.89 100.836 585.108 98.9912C582.352 97.1464 579.162 96.224 575.54 96.224C571.707 96.224 568.334 97.2667 565.421 99.3521C562.507 101.438 560.223 104.191 558.569 107.614C556.942 111.036 556.115 114.779 556.089 118.843V122.613C556.089 127.505 556.916 131.783 558.569 135.446C560.249 139.082 562.625 141.903 565.696 143.908C568.767 145.913 572.403 146.916 576.603 146.916C579.464 146.916 581.971 146.461 584.124 145.552C586.302 144.643 588.127 143.427 589.597 141.903C591.093 140.352 592.222 138.654 592.983 136.809L599.637 139.015C598.718 141.609 597.209 144.001 595.109 146.194C593.035 148.386 590.437 150.151 587.313 151.488C584.215 152.798 580.645 153.453 576.603 153.453Z" fill="white"/>
<path d="M657.384 90.5693C656.938 85.9974 654.956 82.3613 651.439 79.6609C647.921 76.9606 643.498 75.6104 638.17 75.6104C634.416 75.6104 631.108 76.2655 628.247 77.5755C625.412 78.8856 623.181 80.7037 621.553 83.0297C619.952 85.329 619.152 87.9492 619.152 90.8901C619.152 93.0557 619.611 94.954 620.53 96.5849C621.448 98.2158 622.682 99.6195 624.231 100.796C625.806 101.945 627.538 102.935 629.428 103.764C631.345 104.592 633.274 105.288 635.216 105.849L643.721 108.335C646.294 109.057 648.866 109.98 651.439 111.103C654.011 112.226 656.361 113.643 658.487 115.354C660.639 117.038 662.359 119.11 663.645 121.57C664.957 124.003 665.614 126.93 665.614 130.353C665.614 134.737 664.498 138.681 662.267 142.183C660.036 145.686 656.833 148.466 652.659 150.525C648.486 152.557 643.485 153.573 637.658 153.573C632.171 153.573 627.407 152.651 623.365 150.806C619.322 148.934 616.146 146.354 613.836 143.066C611.526 139.777 610.227 135.967 609.938 131.636H617.498C617.76 134.871 618.81 137.611 620.648 139.857C622.485 142.103 624.874 143.814 627.814 144.991C630.754 146.14 634.035 146.715 637.658 146.715C641.674 146.715 645.244 146.033 648.368 144.67C651.518 143.28 653.985 141.355 655.77 138.895C657.581 136.408 658.487 133.521 658.487 130.232C658.487 127.452 657.778 125.126 656.361 123.254C654.943 121.356 652.961 119.765 650.415 118.482C647.895 117.198 644.968 116.062 641.635 115.073L631.988 112.185C625.662 110.26 620.753 107.6 617.262 104.205C613.77 100.809 612.025 96.478 612.025 91.2109C612.025 86.7995 613.18 82.9228 615.49 79.5807C617.826 76.212 620.976 73.5919 624.94 71.7203C628.93 69.8221 633.405 68.8729 638.366 68.8729C643.38 68.8729 647.816 69.8087 651.675 71.6802C655.534 73.5518 658.592 76.1318 660.849 79.4203C663.133 82.6821 664.354 86.3985 664.511 90.5693H657.384Z" fill="white"/>
<path d="M684.449 113.669V152.169H677.44V70.036H684.449V100.234H685.079C686.496 97.0528 688.688 94.5129 691.654 92.6146C694.647 90.7163 698.427 89.7672 702.994 89.7672C707.089 89.7672 710.686 90.6228 713.783 92.3339C716.881 94.045 719.295 96.5715 721.028 99.9136C722.76 103.256 723.627 107.373 723.627 112.266V152.169H716.579V112.707C716.579 107.627 715.187 103.63 712.405 100.716C709.649 97.7747 705.921 96.3042 701.222 96.3042C697.994 96.3042 695.119 96.9993 692.599 98.3896C690.079 99.7799 688.084 101.785 686.615 104.405C685.171 106.999 684.449 110.087 684.449 113.669Z" fill="white"/>
<path d="M761.155 153.453C755.931 153.453 751.311 152.102 747.295 149.402C743.305 146.702 740.181 142.972 737.924 138.213C735.666 133.427 734.538 127.906 734.538 121.65C734.538 115.34 735.666 109.793 737.924 105.007C740.181 100.194 743.305 96.4512 747.295 93.7776C751.311 91.0773 755.931 89.7271 761.155 89.7271C766.379 89.7271 770.986 91.0773 774.976 93.7776C778.965 96.478 782.089 100.221 784.347 105.007C786.63 109.793 787.772 115.34 787.772 121.65C787.772 127.906 786.644 133.427 784.386 138.213C782.129 142.972 778.992 146.702 774.976 149.402C770.986 152.102 766.379 153.453 761.155 153.453ZM761.155 146.916C765.355 146.916 768.912 145.766 771.826 143.467C774.739 141.167 776.944 138.106 778.44 134.283C779.963 130.46 780.724 126.249 780.724 121.65C780.724 117.051 779.963 112.827 778.44 108.977C776.944 105.127 774.739 102.039 771.826 99.713C768.912 97.387 765.355 96.224 761.155 96.224C756.981 96.224 753.424 97.387 750.484 99.713C747.571 102.039 745.353 105.127 743.83 108.977C742.334 112.827 741.586 117.051 741.586 121.65C741.586 126.249 742.334 130.46 743.83 134.283C745.353 138.106 747.571 141.167 750.484 143.467C753.398 145.766 756.955 146.916 761.155 146.916Z" fill="white"/>
<path d="M798.723 175.269V90.5693H805.535V102.32H806.361C807.201 100.475 808.356 98.5901 809.826 96.6651C811.296 94.7134 813.239 93.0691 815.654 91.7323C818.095 90.3955 821.166 89.7271 824.867 89.7271C829.855 89.7271 834.212 91.0639 837.94 93.7375C841.694 96.3844 844.607 100.101 846.681 104.886C848.781 109.645 849.831 115.193 849.831 121.53C849.831 127.893 848.781 133.467 846.681 138.253C844.607 143.039 841.694 146.769 837.94 149.442C834.212 152.116 829.881 153.453 824.946 153.453C821.298 153.453 818.239 152.784 815.772 151.447C813.331 150.111 811.349 148.466 809.826 146.515C808.33 144.536 807.175 142.611 806.361 140.74H805.731V175.269H798.723ZM805.653 121.409C805.653 126.382 806.375 130.794 807.818 134.644C809.288 138.467 811.388 141.475 814.118 143.667C816.874 145.833 820.208 146.916 824.119 146.916C828.136 146.916 831.522 145.793 834.278 143.547C837.06 141.274 839.174 138.213 840.617 134.363C842.087 130.513 842.822 126.195 842.822 121.409C842.822 116.677 842.1 112.413 840.657 108.616C839.239 104.82 837.139 101.812 834.357 99.5927C831.574 97.3469 828.162 96.224 824.119 96.224C820.182 96.224 816.835 97.3068 814.079 99.4724C811.323 101.611 809.223 104.579 807.779 108.376C806.361 112.145 805.653 116.49 805.653 121.409Z" fill="white"/>
<path d="M916.415 114.742V64.2661H940.351V152.169H917.37V136.202H916.471C914.524 141.353 911.283 145.493 906.751 148.621C902.256 151.75 896.768 153.314 890.288 153.314C884.519 153.314 879.444 151.979 875.061 149.308C870.679 146.637 867.251 142.841 864.779 137.919C862.344 132.998 861.108 127.103 861.07 120.236V64.2661H885.006V115.886C885.044 121.075 886.411 125.176 889.108 128.19C891.805 131.205 895.42 132.712 899.952 132.712C902.837 132.712 905.534 132.044 908.043 130.709C910.553 129.335 912.576 127.313 914.112 124.642C915.685 121.972 916.453 118.671 916.415 114.742Z" fill="white"/>
<path d="M953.168 152.169V64.2661H977.104V152.169H953.168ZM965.192 52.9348C961.634 52.9348 958.581 51.733 956.034 49.3294C953.524 46.8877 952.269 43.969 952.269 40.5734C952.269 37.216 953.524 34.3355 956.034 31.9319C958.581 29.4902 961.634 28.2693 965.192 28.2693C968.751 28.2693 971.785 29.4902 974.295 31.9319C976.842 34.3355 978.115 37.216 978.115 40.5734C978.115 43.969 976.842 46.8877 974.295 49.3294C971.785 51.733 968.751 52.9348 965.192 52.9348Z" fill="white"/>
</svg>
