<svg width="13" height="16" viewBox="0 0 13 16" fill="none" xmlns="http://www.w3.org/2000/svg">
<path d="M5.42347 0.0533256C2.76461 0.350143 0.115129 2.50128 0.00577548 5.57412C-0.0629612 7.45032 0.469747 8.85786 2.25534 9.25309C3.03019 7.88617 2.00539 7.58467 1.84604 6.5958C1.19148 2.54346 6.52013 -0.220059 9.30865 2.60908C11.238 4.56807 9.9679 10.595 6.85601 9.96858C3.87533 9.37025 8.3151 4.57276 5.93587 3.63075C4.00187 2.86528 2.97395 5.97248 3.89096 7.51593C3.35356 10.1701 2.19597 12.6712 2.66463 16.0002C4.18465 14.8973 4.69705 12.7852 5.11728 10.5825C5.8812 11.0465 6.28893 11.5292 7.26374 11.6042C10.8584 11.8823 12.8658 8.01583 12.3752 4.44934C11.9394 1.28746 8.78376 -0.321601 5.42347 0.0533256Z" fill="white"/>
</svg>
