<svg width="17" height="12" viewBox="0 0 17 12" fill="none" xmlns="http://www.w3.org/2000/svg">
<path d="M8.78947 11.5087L5.51214 11.4488C4.45101 11.4279 3.38725 11.4696 2.34693 11.2533C0.76436 10.9301 0.652246 9.34543 0.53493 8.01618C0.37328 6.14743 0.435859 4.24476 0.740913 2.3916C0.913126 1.35179 1.59085 0.731322 2.63894 0.663804C6.17698 0.41877 9.73856 0.447809 13.2688 0.562126C13.6416 0.572606 14.017 0.629885 14.3846 0.695083C16.1993 1.01308 16.2436 2.80887 16.3612 4.32059C16.4785 5.84792 16.429 7.38308 16.2048 8.9C16.0249 10.156 15.6807 11.2092 14.2282 11.3109C12.4083 11.4439 10.6301 11.5509 8.80507 11.5168C8.80515 11.5087 8.79467 11.5087 8.78947 11.5087ZM6.86271 8.32897C8.23418 7.54179 9.57947 6.76773 10.9431 5.98583C9.56907 5.19865 8.22633 4.42459 6.86271 3.64269V8.32897Z" fill="white"/>
</svg>
