<svg width="17" height="16" viewBox="0 0 17 16" fill="none" xmlns="http://www.w3.org/2000/svg">
<path d="M6.01879 9.36568C5.94439 9.29148 5.88559 9.20328 5.84519 9.10628C5.80499 9.00908 5.78439 8.90508 5.78439 8.80007C5.78439 8.47647 5.97939 8.18487 6.27819 8.06087C6.57719 7.93707 6.9212 8.00567 7.15 8.23447C7.3788 8.46327 7.4474 8.80727 7.3236 9.10628C7.1996 9.40508 6.90799 9.60008 6.58439 9.60008C6.47932 9.60009 6.37528 9.57944 6.27819 9.53928C6.18119 9.49888 6.09299 9.44008 6.01879 9.36568Z" fill="white"/>
<path d="M10.4924 10.8749C10.4916 10.9321 10.4682 10.9867 10.4272 11.0267L10.4324 11.0001C10.2918 11.1061 10.1424 11.1997 9.98582 11.2801C9.67192 11.441 9.33272 11.5467 8.98301 11.5927C8.80841 11.6155 8.63221 11.6233 8.45641 11.6161C8.28061 11.6233 8.10441 11.6155 7.9298 11.5927C7.7552 11.5697 7.583 11.5319 7.415 11.4795C7.247 11.4271 7.0836 11.3605 6.927 11.2801C6.77039 11.1997 6.62099 11.1061 6.48039 11.0001C6.44639 10.9587 6.42899 10.9061 6.43159 10.8525C6.43419 10.7989 6.45679 10.7483 6.49459 10.7103C6.53259 10.6725 6.58319 10.6499 6.63679 10.6473C6.69039 10.6447 6.74299 10.6621 6.78439 10.6961C6.90359 10.7835 7.03 10.8607 7.1622 10.9267C7.2944 10.9927 7.4318 11.0475 7.5734 11.0903C7.71477 11.1333 7.85957 11.1641 8.00621 11.1823C8.15281 11.2007 8.30081 11.2067 8.44841 11.2001C8.59621 11.2081 8.74441 11.2037 8.89161 11.1867C9.03861 11.1697 9.18402 11.1403 9.32602 11.0989C9.46814 11.0574 9.60649 11.0039 9.73962 10.9391C9.87274 10.8743 10.0001 10.7984 10.1204 10.7121C10.1666 10.6775 10.2218 10.6553 10.2792 10.6561C10.3364 10.6569 10.391 10.6803 10.431 10.7213C10.471 10.7623 10.4932 10.8175 10.4924 10.8749Z" fill="white"/>
<path d="M10.5966 9.60268C10.4964 9.64428 10.3888 9.66528 10.2804 9.66408L10.2884 9.63208C9.96482 9.63208 9.67322 9.43708 9.54922 9.13828C9.42542 8.83927 9.49402 8.49527 9.72282 8.26647C9.95162 8.03767 10.2956 7.96907 10.5946 8.09287C10.8934 8.21687 11.0884 8.50847 11.0884 8.83208C11.0928 8.94046 11.0751 9.04859 11.0362 9.14988C10.9974 9.25128 10.9386 9.34368 10.863 9.42148C10.7874 9.49928 10.6968 9.56088 10.5966 9.60268Z" fill="white"/>
<path fill-rule="evenodd" clip-rule="evenodd" d="M16.4484 8C16.4484 12.4183 12.8666 16 8.44836 16C4.03009 16 0.448364 12.4183 0.448364 8C0.448364 3.58172 4.03009 0 8.44836 0C12.8666 0 16.4484 3.58172 16.4484 8ZM13.7437 8.32487C13.7725 8.21907 13.7861 8.10967 13.7845 8.00007C13.7762 7.77484 13.703 7.5568 13.5737 7.37226C13.4443 7.18773 13.2643 7.04458 13.0554 6.96006C12.8466 6.87549 12.6177 6.8532 12.3964 6.89585C12.1752 6.93836 11.971 7.04402 11.8084 7.20006C11.5824 7.04641 11.3456 6.90925 11.0998 6.78965C10.6078 6.54991 10.0837 6.38244 9.54382 6.29245C9.27422 6.24745 9.00161 6.22185 8.72841 6.21605L9.24842 3.72002L10.9604 4.08003C11.0024 4.47083 11.3222 4.77323 11.7148 4.79343C12.1072 4.81363 12.4564 4.54563 12.5382 4.16123C12.6202 3.77682 12.4106 3.38982 12.044 3.24822C11.6774 3.10662 11.2622 3.25222 11.0644 3.59202L9.10441 3.20002C9.07241 3.19302 9.03921 3.19242 9.00701 3.19822C8.97461 3.20422 8.94381 3.21642 8.91621 3.23422C8.88881 3.25202 8.86501 3.27522 8.84661 3.30222C8.82801 3.32942 8.81501 3.35982 8.80841 3.39202L8.21641 6.16805C7.9398 6.17225 7.6638 6.19645 7.3908 6.24065C7.1178 6.28485 6.84819 6.34865 6.58439 6.43185C6.32059 6.51505 6.06319 6.61745 5.81419 6.73785C5.56524 6.85843 5.32535 6.99686 5.09638 7.15206C4.97304 7.03603 4.82594 6.94821 4.66529 6.89468C4.50463 6.84115 4.33426 6.82319 4.16597 6.84205C3.99771 6.86083 3.83554 6.916 3.69073 7.00372C3.54592 7.09144 3.42193 7.20962 3.32736 7.35006C3.23271 7.49052 3.16974 7.64988 3.1428 7.8171C3.11586 7.98432 3.12561 8.15539 3.17136 8.31847C3.21719 8.48147 3.29789 8.63258 3.40788 8.76131C3.51787 8.89005 3.65452 8.99336 3.80837 9.06408C3.80617 9.09328 3.80437 9.12268 3.80337 9.15208C3.80096 9.21072 3.80096 9.26944 3.80337 9.32808C3.80437 9.35748 3.80617 9.38688 3.80837 9.41608C3.80837 11.2081 5.89639 12.6641 8.47241 12.6641C11.0484 12.6641 13.1365 11.2081 13.1365 9.41608C13.1387 9.38688 13.1405 9.35748 13.1415 9.32808C13.1439 9.26944 13.1439 9.21072 13.1415 9.15208C13.1405 9.12268 13.1387 9.09328 13.1365 9.06408C13.2347 9.01528 13.3255 8.95288 13.4063 8.87868C13.4871 8.80447 13.5571 8.71927 13.6141 8.62567C13.6713 8.53207 13.7149 8.43067 13.7437 8.32487Z" fill="white"/>
</svg>
