<svg width="15" height="16" viewBox="0 0 15 16" fill="none" xmlns="http://www.w3.org/2000/svg">
<path d="M5.22337 7.99999C5.22337 6.67455 6.29759 5.5998 7.62308 5.5998C8.94856 5.5998 10.0234 6.67455 10.0234 7.99999C10.0234 9.32542 8.94856 10.4002 7.62308 10.4002C6.29759 10.4002 5.22337 9.32542 5.22337 7.99999V7.99999ZM3.92582 7.99999C3.92582 10.0419 5.58108 11.6971 7.62308 11.6971C9.66508 11.6971 11.3203 10.0419 11.3203 7.99999C11.3203 5.95807 9.66508 4.30287 7.62308 4.30287C5.58108 4.30287 3.92587 5.95795 3.92587 7.99999H3.92582ZM10.6027 4.15628C10.6027 4.32717 10.6533 4.49423 10.7482 4.63635C10.843 4.77847 10.9779 4.88927 11.1358 4.95473C11.2936 5.02018 11.4674 5.03736 11.635 5.00409C11.8026 4.97082 11.9566 4.8886 12.0775 4.76781C12.1984 4.64703 12.2807 4.49311 12.3141 4.32552C12.3475 4.15794 12.3305 3.98421 12.2652 3.82631C12.1998 3.66841 12.0891 3.53342 11.9471 3.43843C11.805 3.34344 11.638 3.2927 11.4671 3.29263H11.4668C11.2377 3.29273 11.018 3.38375 10.856 3.54568C10.694 3.70762 10.6029 3.92723 10.6027 4.15628V4.15628ZM4.71416 13.8607C4.01216 13.8287 3.63061 13.7118 3.37704 13.613C3.04087 13.4821 2.80102 13.3263 2.54883 13.0744C2.29665 12.8226 2.14055 12.583 2.01025 12.2468C1.91141 11.9934 1.79447 11.6117 1.76256 10.9098C1.72766 10.1508 1.72069 9.92285 1.72069 8.0001C1.72069 6.07736 1.72823 5.85001 1.76256 5.09044C1.79453 4.38847 1.91233 4.00756 2.01025 3.75337C2.14112 3.41722 2.297 3.17737 2.54883 2.9252C2.80067 2.67302 3.0403 2.51693 3.37704 2.38664C3.63049 2.2878 4.01216 2.17087 4.71416 2.13896C5.47313 2.10405 5.70112 2.09708 7.62308 2.09708C9.54504 2.09708 9.77326 2.10451 10.5329 2.13907C11.2349 2.17104 11.6158 2.28883 11.87 2.38675C12.2061 2.51704 12.446 2.67349 12.6982 2.92531C12.9504 3.17714 13.1059 3.41733 13.2368 3.75349C13.3356 4.00693 13.4525 4.38858 13.4845 5.09055C13.5194 5.85013 13.5263 6.07747 13.5263 8.00022C13.5263 9.92296 13.5194 10.1503 13.4845 10.9099C13.4525 11.6119 13.335 11.9934 13.2368 12.247C13.1059 12.5831 12.95 12.823 12.6982 13.0745C12.4463 13.3261 12.2061 13.4822 11.87 13.6131C11.6165 13.7119 11.2349 13.8289 10.5329 13.8608C9.77389 13.8957 9.5459 13.9027 7.62308 13.9027C5.70026 13.9027 5.4729 13.8957 4.71416 13.8608V13.8607ZM4.65454 0.843591C3.88803 0.878497 3.36425 1.00003 2.90683 1.17802C2.4334 1.36182 2.03208 1.6084 1.63134 2.00849C1.23061 2.40858 0.984643 2.80994 0.800834 3.28393C0.622843 3.74162 0.501303 4.26509 0.466396 5.03157C0.430912 5.79926 0.422791 6.0447 0.422791 7.99999C0.422791 9.95528 0.430912 10.2007 0.466396 10.9684C0.501303 11.7349 0.622843 12.2584 0.800834 12.716C0.984643 13.1895 1.23066 13.5916 1.63134 13.9915C2.03203 14.3914 2.43282 14.6376 2.90683 14.822C3.36512 14.9999 3.88803 15.1215 4.65454 15.1564C5.42267 15.1913 5.66771 15.2 7.62308 15.2C9.57845 15.2 9.82389 15.1919 10.5916 15.1564C11.3582 15.1215 11.8816 14.9999 12.3393 14.822C12.8128 14.6376 13.2141 14.3916 13.6148 13.9915C14.0156 13.5914 14.261 13.1895 14.4453 12.716C14.6233 12.2584 14.7454 11.7349 14.7798 10.9684C14.8147 10.2001 14.8228 9.95528 14.8228 7.99999C14.8228 6.0447 14.8147 5.79926 14.7798 5.03157C14.7449 4.26503 14.6233 3.74133 14.4453 3.28393C14.261 2.81052 14.0149 2.40922 13.6148 2.00849C13.2147 1.60777 12.8128 1.36182 12.3399 1.17802C11.8816 1.00003 11.3581 0.877921 10.5922 0.843591C9.82435 0.808513 9.57902 0.799988 7.62394 0.799988C5.66886 0.799988 5.42296 0.808109 4.65483 0.843591" fill="white"/>
</svg>
