<svg width="16" height="14" viewBox="0 0 16 14" fill="none" xmlns="http://www.w3.org/2000/svg">
<path d="M5.03184 13.5056C11.0699 13.5056 14.3718 8.50031 14.3718 4.1599C14.3718 4.01775 14.3689 3.87626 14.3625 3.73535C15.005 3.27017 15.5595 2.6942 16 2.03446C15.4118 2.29611 14.7789 2.47222 14.1149 2.55162C14.7926 2.14499 15.3129 1.50168 15.5584 0.734864C14.914 1.11736 14.2091 1.387 13.4739 1.53216C12.8749 0.893699 12.0221 0.494385 11.0778 0.494385C9.26494 0.494385 7.79489 1.96537 7.79489 3.77857C7.79489 4.03636 7.82374 4.28702 7.88006 4.52753C5.15177 4.39017 2.73252 3.08313 1.11343 1.0957C0.821818 1.59697 0.668434 2.16667 0.668943 2.74662C0.668943 3.88621 1.24846 4.8922 2.12976 5.48077C1.60846 5.46483 1.0986 5.32394 0.643057 5.06994C0.642569 5.08373 0.642569 5.09716 0.642569 5.1119C0.642569 6.70261 1.77408 8.03077 3.27613 8.33171C2.99402 8.40859 2.70292 8.44746 2.41054 8.44729C2.19938 8.44729 1.99359 8.4265 1.79359 8.38809C2.21151 9.69317 3.42335 10.6429 4.86013 10.6694C3.73659 11.5506 2.32127 12.0754 0.783024 12.0754C0.521349 12.0757 0.259888 12.0605 0 12.0299C1.45281 12.9617 3.17789 13.5054 5.032 13.5054" fill="white"/>
</svg>
